<svg id="Capa_1" enable-background="new 0 0 512 512" height="512" viewBox="0 0 512 512" width="512" xmlns="http://www.w3.org/2000/svg"><g><path d="m256 512c8.284 0 15-6.716 15-15v-15h15c8.284 0 15-6.716 15-15s-6.716-15-15-15h-15v-15c0-8.284-6.716-15-15-15s-15 6.716-15 15v15h-15c-8.284 0-15 6.716-15 15s6.716 15 15 15h15v15c0 8.284 6.716 15 15 15z"/><path d="m286 332h-15v-15c0-8.284-6.716-15-15-15s-15 6.716-15 15v15h-15c-8.284 0-15 6.716-15 15s6.716 15 15 15h15v15c0 8.284 6.716 15 15 15s15-6.716 15-15v-15h15c8.284 0 15-6.716 15-15s-6.716-15-15-15z"/><path d="m136 452c8.284 0 15-6.716 15-15v-15h15c8.284 0 15-6.716 15-15s-6.716-15-15-15h-15v-15c0-8.284-6.716-15-15-15s-15 6.716-15 15v15h-15c-8.284 0-15 6.716-15 15s6.716 15 15 15h15v15c0 8.284 6.716 15 15 15z"/><path d="m46 332h15v15c0 8.284 6.716 15 15 15s15-6.716 15-15v-15h15c8.284 0 15-6.716 15-15s-6.716-15-15-15h-15v-15c0-8.284-6.716-15-15-15s-15 6.716-15 15v15h-15c-8.284 0-15 6.716-15 15s6.716 15 15 15z"/><path d="m436 362c8.284 0 15-6.716 15-15v-15h15c8.284 0 15-6.716 15-15s-6.716-15-15-15h-15v-15c0-8.284-6.716-15-15-15s-15 6.716-15 15v15h-15c-8.284 0-15 6.716-15 15s6.716 15 15 15h15v15c0 8.284 6.716 15 15 15z"/><path d="m376 452c8.284 0 15-6.716 15-15v-15h15c8.284 0 15-6.716 15-15s-6.716-15-15-15h-15v-15c0-8.284-6.716-15-15-15s-15 6.716-15 15v15h-15c-8.284 0-15 6.716-15 15s6.716 15 15 15h15v15c0 8.284 6.716 15 15 15z"/><circle cx="346" cy="317" r="15"/><path d="m414.581 88.57c-12.472-46.251-55.424-78.799-104.572-78.799-18.874 0-36.98 4.644-53.046 13.526-17.225-14.93-39.552-23.297-62.974-23.297-50.723 0-92.287 39.074-94.854 88.056-39.642 11.556-68.135 48.193-68.135 90.073 0 51.964 43.269 93.871 94.98 93.871h260.04c51.776 0 94.98-41.974 94.98-93.871 0-40.837-27.3-77.314-66.419-89.559zm-28.561 153.43h-260.04c-35.83 0-64.98-28.652-64.98-63.871 0-31.527 23.845-58.696 55.464-63.199 7.932-1.129 13.575-8.292 12.818-16.268-3.511-36.976 26.681-68.662 64.707-68.662 19.194 0 37.268 8.094 49.586 22.206 5.09 5.831 13.779 6.832 20.062 2.312 13.407-9.647 29.442-14.746 46.372-14.746 37.903 0 71.054 27.302 77.109 63.505 1.03 6.159 5.769 11.035 11.895 12.242 29.637 5.841 51.987 32.758 51.987 62.61 0 35.219-29.15 63.871-64.98 63.871z"/><circle cx="166" cy="317" r="15"/></g></svg>