<svg id="Capa_1" enable-background="new 0 0 512 512" height="512" viewBox="0 0 512 512" width="512" xmlns="http://www.w3.org/2000/svg"><g><path d="m445.574 119.545c-12.479-46.242-55.434-78.773-104.565-78.773-19.099 0-37.855 4.757-54.009 13.559-17.229-14.951-39.573-23.331-63.01-23.331-50.717 0-92.276 39.067-94.854 88.041-39.938 11.537-68.136 47.557-68.136 89.088 0 19.657 6.337 38.56 17.995 54.311-5.689 11.114-9.166 23.492-9.858 36.578-40.215 11.492-69.137 47.763-69.137 89.111 0 51.335 43.601 92.871 95.98 92.871h261.04c52.372 0 94.98-41.662 94.98-92.871 0-39.218-25.396-73.856-62.116-87.129h27.136c52.372 0 94.98-41.662 94.98-92.871 0-40.735-27.396-76.542-66.426-88.584zm-23.574 268.584c0 34.667-29.15 62.871-64.98 62.871h-261.04c-36.381 0-65.98-28.204-65.98-62.871 0-30.875 24.274-57.615 56.464-62.198 7.932-1.13 13.577-8.294 12.818-16.271-3.517-36.969 26.681-68.66 64.708-68.66 19.194 0 37.267 8.094 49.585 22.206 5.089 5.831 13.779 6.832 20.062 2.311 13.406-9.647 29.441-14.746 46.372-14.746 38.474 0 72.054 27.302 78.109 63.506 1.03 6.158 5.769 11.034 11.895 12.242 30.123 5.938 51.987 31.848 51.987 61.61zm-4.98-117.129h-44.252c-19.511-30.225-54.383-50.229-92.758-50.229-18.874 0-36.981 4.644-53.046 13.526-17.226-14.93-39.553-23.297-62.974-23.297-25.494 0-48.672 9.873-65.75 25.912-4.719-8.829-7.24-18.664-7.24-28.783 0-30.957 23.844-57.696 55.464-62.199 7.932-1.13 13.577-8.294 12.818-16.271-3.517-36.968 26.681-68.659 64.708-68.659 19.194 0 37.267 8.094 49.586 22.206 5.089 5.83 13.779 6.831 20.061 2.311 13.024-9.371 30.29-14.746 47.372-14.746 37.903 0 71.054 27.302 77.109 63.506 1.03 6.158 5.769 11.034 11.895 12.242 30.123 5.937 51.987 31.848 51.987 61.61 0 34.667-29.15 62.871-64.98 62.871z"/></g></svg>