<svg id="Capa_1" enable-background="new 0 0 512 512" height="512" viewBox="0 0 512 512" width="512" xmlns="http://www.w3.org/2000/svg"><g><path d="m136 422c-8.284 0-15 6.716-15 15v60c0 8.284 6.716 15 15 15s15-6.716 15-15v-60c0-8.284-6.716-15-15-15z"/><path d="m256 422c-8.284 0-15 6.716-15 15v60c0 8.284 6.716 15 15 15s15-6.716 15-15v-60c0-8.284-6.716-15-15-15z"/><path d="m316 302c-8.284 0-15 6.716-15 15v60c0 8.284 6.716 15 15 15s15-6.716 15-15v-60c0-8.284-6.716-15-15-15z"/><path d="m196 302c-8.284 0-15 6.716-15 15v60c0 8.284 6.716 15 15 15s15-6.716 15-15v-60c0-8.284-6.716-15-15-15z"/><circle cx="196" cy="437" r="15"/><circle cx="136" cy="377" r="15"/><circle cx="136" cy="317" r="15"/><path d="m376 422c-8.284 0-15 6.716-15 15v60c0 8.284 6.716 15 15 15s15-6.716 15-15v-60c0-8.284-6.716-15-15-15z"/><circle cx="376" cy="377" r="15"/><circle cx="376" cy="317" r="15"/><circle cx="256" cy="377" r="15"/><circle cx="256" cy="317" r="15"/><path d="m414.581 88.57c-5.573-20.668-17.543-39.375-34.363-53.438-19.561-16.354-44.494-25.36-70.208-25.36-18.874 0-36.981 4.644-53.046 13.526-17.226-14.931-39.553-23.298-62.974-23.298-50.72 0-92.282 39.078-94.854 88.056-39.643 11.556-68.136 48.192-68.136 90.073 0 51.964 43.269 93.871 94.98 93.871h260.04c51.776 0 94.98-41.974 94.98-93.871 0-40.839-27.301-77.314-66.419-89.559zm-28.561 153.43h-260.04c-35.83 0-64.98-28.652-64.98-63.871 0-31.527 23.844-58.696 55.464-63.199 7.933-1.129 13.577-8.294 12.818-16.271-3.517-36.967 26.681-68.659 64.708-68.659 19.194 0 37.267 8.094 49.585 22.206 5.09 5.831 13.78 6.831 20.062 2.312 13.406-9.647 29.441-14.746 46.372-14.746 37.903 0 71.053 27.302 77.11 63.506 1.03 6.158 5.768 11.034 11.894 12.242 29.637 5.84 51.987 32.757 51.987 62.609 0 35.219-29.15 63.871-64.98 63.871z"/><circle cx="196" cy="497" r="15"/><circle cx="316" cy="437" r="15"/><circle cx="316" cy="497" r="15"/></g></svg>