<svg id="Capa_1" enable-background="new 0 0 512 512" height="512" viewBox="0 0 512 512" width="512" xmlns="http://www.w3.org/2000/svg"><g><path d="m271 364v-62c0-8.284-6.716-15-15-15s-15 6.716-15 15v62c0 8.284 6.716 15 15 15s15-6.716 15-15z"/><path d="m481 178.129c0-40.839-27.301-77.314-66.419-89.56-12.475-46.264-55.44-78.798-104.572-78.798-18.874 0-36.981 4.644-53.046 13.526-17.225-14.93-39.552-23.297-62.973-23.297-50.72 0-92.282 39.078-94.854 88.056-39.643 11.556-68.136 48.192-68.136 90.073 0 49.88 40.14 91.171 90 93.74v30.131c0 8.284 6.716 15 15 15s15-6.716 15-15v-30h210v30c0 8.284 6.716 15 15 15s15-6.716 15-15v-30.131c49.813-2.566 90-43.813 90-93.74zm-94.981 63.871h-260.039c-35.83 0-64.98-28.652-64.98-63.871 0-31.527 23.844-58.696 55.464-63.199 7.933-1.129 13.577-8.294 12.818-16.271-3.517-36.967 26.68-68.659 64.708-68.659 19.194 0 37.267 8.094 49.585 22.206 5.09 5.831 13.78 6.832 20.062 2.312 13.406-9.647 29.441-14.746 46.372-14.746 37.903 0 71.053 27.302 77.11 63.506 1.03 6.158 5.768 11.034 11.894 12.242 29.637 5.84 51.987 32.757 51.987 62.609 0 35.219-29.15 63.871-64.981 63.871z"/><path d="m189.033 381.394-42.426-42.426c-5.857-5.858-15.355-5.858-21.213 0l-42.426 42.426c-5.858 5.858-5.858 15.355 0 21.213l42.426 42.426c5.857 5.857 15.355 5.858 21.213 0l42.426-42.426c5.858-5.858 5.858-15.356 0-21.213zm-53.033 31.819-21.213-21.213 21.213-21.213 21.213 21.213z"/><path d="m309.033 443.967-42.426-42.427c-2.813-2.813-6.628-4.394-10.606-4.394s-7.793 1.581-10.606 4.394l-42.426 42.427c-5.858 5.858-5.858 15.355 0 21.213l42.426 42.426c5.857 5.857 15.355 5.858 21.213 0l42.426-42.426c5.857-5.858 5.857-15.355-.001-21.213zm-53.033 31.82-21.213-21.213 21.213-21.214 21.213 21.213z"/><path d="m429.033 381.394-42.426-42.426c-5.857-5.858-15.355-5.858-21.213 0l-42.426 42.426c-5.858 5.858-5.858 15.355 0 21.213l42.426 42.426c5.857 5.857 15.355 5.858 21.213 0l42.426-42.426c5.858-5.858 5.858-15.356 0-21.213zm-53.033 31.819-21.213-21.213 21.213-21.213 21.213 21.213z"/></g></svg>